<svg aria-hidden="true" style="position: absolute; width: 0; height: 0; overflow: hidden;" version="1.1" xmlns="http://www.w3.org/2000/svg" xmlns:xlink="http://www.w3.org/1999/xlink">
<defs>

<symbol id="icon-GRAVITY" viewBox="0 0 322 32">
<path fill="#fff" style="fill: var(--color1, #fff)" opacity="0.9" d="M24.11 25.765c-2.578 2.77-5.541 4.155-8.887 4.155-1.947 0-3.758-0.425-5.431-1.275-1.646-0.85-3.072-1.961-4.279-3.333-1.207-1.399-2.167-2.99-2.88-4.773-0.686-1.783-1.029-3.621-1.029-5.513 0-1.975 0.343-3.84 1.029-5.595 0.686-1.783 1.632-3.346 2.839-4.69 1.207-1.371 2.647-2.455 4.32-3.25s3.483-1.193 5.431-1.193c2.825 0 5.143 0.59 6.953 1.769 1.838 1.179 3.237 2.715 4.197 4.608l-2.839 1.975c-0.878-1.701-2.043-2.962-3.497-3.785s-3.086-1.234-4.896-1.234c-1.481 0-2.825 0.329-4.032 0.987-1.207 0.631-2.235 1.481-3.086 2.551-0.85 1.042-1.509 2.263-1.975 3.662-0.466 1.371-0.699 2.798-0.699 4.279 0 1.563 0.261 3.045 0.782 4.443 0.521 1.371 1.234 2.592 2.139 3.662 0.905 1.042 1.975 1.865 3.209 2.469s2.578 0.905 4.032 0.905c3.182 0 6.048-1.536 8.599-4.608v-4.032h-6.295v-2.798h9.422v14.565h-3.127v-3.95zM57.553 29.714v-29.211h12.507c1.289 0 2.469 0.274 3.538 0.823 1.097 0.521 2.030 1.234 2.798 2.139 0.795 0.878 1.413 1.879 1.851 3.003 0.439 1.097 0.658 2.222 0.658 3.374 0 1.015-0.151 2.002-0.453 2.962-0.274 0.933-0.686 1.783-1.234 2.551-0.521 0.768-1.166 1.426-1.934 1.975-0.741 0.549-1.577 0.946-2.51 1.193l7.077 11.191h-4.197l-6.665-10.491h-7.735v10.491h-3.703zM61.256 15.931h8.846c0.768 0 1.454-0.165 2.057-0.494 0.631-0.329 1.166-0.768 1.605-1.317 0.439-0.576 0.782-1.234 1.029-1.975s0.37-1.509 0.37-2.304c0-0.823-0.151-1.591-0.453-2.304-0.274-0.741-0.658-1.385-1.152-1.934-0.466-0.576-1.029-1.015-1.687-1.317-0.631-0.329-1.303-0.494-2.016-0.494h-8.599v12.137zM118.166 0.503h3.127l11.931 29.211h-3.95l-3.456-8.558h-12.261l-3.415 8.558h-3.95l11.973-29.211zM124.996 18.277l-5.266-13.495-5.431 13.495h10.697zM160.261 0.503l9.669 24.562 9.627-24.562h3.909l-11.931 29.211h-3.209l-11.973-29.211h3.909zM212.088 29.714v-29.211h3.703v29.211h-3.703zM268.526 3.794h-10.080v25.92h-3.703v-25.92h-10.080v-3.291h23.863v3.291zM298.53 0.503l8.846 15.223 8.928-15.223h4.032l-11.109 18.555v10.656h-3.703v-10.738l-11.067-18.473h4.073z"></path>
</symbol>

<symbol id="icon-Stress" viewBox="0 0 33 32">
<path fill="#000" style="fill: var(--color1, #000)" opacity="0.04"  d="M33.021 15.995c0 8.834-7.392 15.995-16.511 15.995s-16.511-7.161-16.511-15.995c0-8.834 7.392-15.995 16.511-15.995s16.511 7.161 16.511 15.995z"></path>
<path fill="none" stroke="#000" style="stroke: var(--color1, #000)" stroke-linejoin="miter" stroke-linecap="butt" stroke-miterlimit="4" stroke-width="0.3404" d="M16.495 22.306c0 0-5.32 0.469-5.611 0-0.351-0.564 0.351-2.855 0-3.058s-1.674 0.141-1.885 0c-0.526-0.352 0.509-1.243 0.658-2.081 2.423-13.691 13.602-7.788 14.303-4.178s-2.16 6.757-2.16 6.757c-0.696 0.885-0.902 1.441-0.877 2.56"></path>
<path fill="none" stroke="#000" style="stroke: var(--color1, #000)" stroke-linejoin="miter" stroke-linecap="butt" stroke-miterlimit="4" stroke-width="0.3404" d="M23.888 12.694c0 0-0.566 0.594-1.019 0.751-1.041 0.361-1.661-1.315-2.752-1.136-0.809 0.133-1.553 1.039-2.367 1.136-1.236 0.147-1.503-0.87-2.718-1.136-1.264-0.276-1.434 0.351-2.441 1.136s-1.504-0.836-1.504-0.836"></path>
</symbol>

<symbol id="icon-Group-135" viewBox="0 0 33 32">
<path fill="#000" style="fill: var(--color1, #000)" opacity="0.04"  d="M32.674 16.108c0 8.741-7.314 15.827-16.337 15.827s-16.337-7.086-16.337-15.827c0-8.741 7.314-15.827 16.337-15.827s16.337 7.086 16.337 15.827z"></path>
<path fill="none" stroke="#000" style="stroke: var(--color1, #000)" stroke-linejoin="miter" stroke-linecap="butt" stroke-miterlimit="4" stroke-width="0.3368" d="M21.803 14.446c0 2.679-2.243 4.86-5.022 4.86s-5.022-2.181-5.022-4.86c0-2.679 2.243-4.86 5.022-4.86s5.022 2.181 5.022 4.86z"></path>
<path fill="none" stroke="#000" style="stroke: var(--color1, #000)" stroke-linejoin="miter" stroke-linecap="butt" stroke-miterlimit="4" stroke-width="0.3368" d="M5.726 15.426c5.325 0 5.527 6.596 11.055 6.596"></path>
<path fill="none" stroke="#000" style="stroke: var(--color1, #000)" stroke-linejoin="miter" stroke-linecap="butt" stroke-miterlimit="4" stroke-width="0.3368" d="M27.768 15.426c-5.325 0-5.527 6.596-11.055 6.596"></path>
</symbol>

<symbol id="icon-Sleep" viewBox="0 0 33 32">
<path fill="#000" style="fill: var(--color1, #000)" opacity="0.04" d="M32.674 16.108c0 8.741-7.314 15.827-16.337 15.827s-16.337-7.086-16.337-15.827c0-8.741 7.314-15.827 16.337-15.827s16.337 7.086 16.337 15.827z"></path>
<path fill="none" stroke="#000" style="stroke: var(--color1, #000)" stroke-linejoin="miter" stroke-linecap="butt" stroke-miterlimit="4" stroke-width="0.3368" d="M19.354 18.060c1.921-1.861 2.366-4.611 1.335-6.885 0.605 0.407 1.129 0.918 1.546 1.509 0.528 0.749 0.87 1.606 0.999 2.503s0.041 1.812-0.257 2.671c-0.298 0.859-0.797 1.641-1.459 2.282s-1.47 1.126-2.359 1.415c-0.889 0.289-1.835 0.374-2.764 0.25s-1.815-0.457-2.589-0.969c-0.607-0.402-1.131-0.906-1.55-1.486 2.343 0.998 5.178 0.571 7.098-1.29z"></path>
<path fill="#000" style="fill: var(--color1, #000)" d="M10.644 15.716c-0.034 0-0.067-0.016-0.101-0.033-0.067-0.049-0.084-0.114-0.067-0.179l0.657-1.958-1.718-1.224c-0.067-0.049-0.084-0.114-0.067-0.18s0.084-0.114 0.168-0.114h2.139l0.64-1.974c0.017-0.065 0.084-0.114 0.168-0.114s0.135 0.049 0.168 0.114l0.657 1.974h2.139c0.067 0 0.135 0.033 0.168 0.098s0 0.147-0.067 0.179l-1.718 1.207 0.657 1.958c0.017 0.065 0 0.147-0.067 0.179s-0.135 0.049-0.202 0l-1.735-1.175-1.718 1.207c-0.034 0.016-0.067 0.033-0.101 0.033zM12.463 14.101c0.034 0 0.067 0.016 0.101 0.033l1.398 0.995-0.539-1.599c-0.017-0.065 0-0.147 0.067-0.18l1.398-0.995h-1.735c-0.067 0-0.135-0.049-0.168-0.114l-0.522-1.599-0.539 1.599c-0.017 0.065-0.084 0.114-0.168 0.114h-1.735l1.398 0.995c0.067 0.049 0.084 0.114 0.067 0.18l-0.522 1.599 1.398-0.995c0.034-0.016 0.067-0.033 0.101-0.033z"></path>
</symbol>



</defs>
</svg>
