<svg aria-hidden="true" style="position: absolute; width: 0; height: 0; overflow: hidden;" version="1.1" xmlns="http://www.w3.org/2000/svg" xmlns:xlink="http://www.w3.org/1999/xlink">
<defs>

<symbol id="icon-GRAVITY" viewBox="0 0 322 32">
<path fill="#fff" style="fill: var(--color1, #fff)" opacity="0.9" d="M24.11 25.765c-2.578 2.77-5.541 4.155-8.887 4.155-1.947 0-3.758-0.425-5.431-1.275-1.646-0.85-3.072-1.961-4.279-3.333-1.207-1.399-2.167-2.99-2.88-4.773-0.686-1.783-1.029-3.621-1.029-5.513 0-1.975 0.343-3.84 1.029-5.595 0.686-1.783 1.632-3.346 2.839-4.69 1.207-1.371 2.647-2.455 4.32-3.25s3.483-1.193 5.431-1.193c2.825 0 5.143 0.59 6.953 1.769 1.838 1.179 3.237 2.715 4.197 4.608l-2.839 1.975c-0.878-1.701-2.043-2.962-3.497-3.785s-3.086-1.234-4.896-1.234c-1.481 0-2.825 0.329-4.032 0.987-1.207 0.631-2.235 1.481-3.086 2.551-0.85 1.042-1.509 2.263-1.975 3.662-0.466 1.371-0.699 2.798-0.699 4.279 0 1.563 0.261 3.045 0.782 4.443 0.521 1.371 1.234 2.592 2.139 3.662 0.905 1.042 1.975 1.865 3.209 2.469s2.578 0.905 4.032 0.905c3.182 0 6.048-1.536 8.599-4.608v-4.032h-6.295v-2.798h9.422v14.565h-3.127v-3.95zM57.553 29.714v-29.211h12.507c1.289 0 2.469 0.274 3.538 0.823 1.097 0.521 2.030 1.234 2.798 2.139 0.795 0.878 1.413 1.879 1.851 3.003 0.439 1.097 0.658 2.222 0.658 3.374 0 1.015-0.151 2.002-0.453 2.962-0.274 0.933-0.686 1.783-1.234 2.551-0.521 0.768-1.166 1.426-1.934 1.975-0.741 0.549-1.577 0.946-2.51 1.193l7.077 11.191h-4.197l-6.665-10.491h-7.735v10.491h-3.703zM61.256 15.931h8.846c0.768 0 1.454-0.165 2.057-0.494 0.631-0.329 1.166-0.768 1.605-1.317 0.439-0.576 0.782-1.234 1.029-1.975s0.37-1.509 0.37-2.304c0-0.823-0.151-1.591-0.453-2.304-0.274-0.741-0.658-1.385-1.152-1.934-0.466-0.576-1.029-1.015-1.687-1.317-0.631-0.329-1.303-0.494-2.016-0.494h-8.599v12.137zM118.166 0.503h3.127l11.931 29.211h-3.95l-3.456-8.558h-12.261l-3.415 8.558h-3.95l11.973-29.211zM124.996 18.277l-5.266-13.495-5.431 13.495h10.697zM160.261 0.503l9.669 24.562 9.627-24.562h3.909l-11.931 29.211h-3.209l-11.973-29.211h3.909zM212.088 29.714v-29.211h3.703v29.211h-3.703zM268.526 3.794h-10.080v25.92h-3.703v-25.92h-10.080v-3.291h23.863v3.291zM298.53 0.503l8.846 15.223 8.928-15.223h4.032l-11.109 18.555v10.656h-3.703v-10.738l-11.067-18.473h4.073z"></path>
</symbol>

</defs>
</svg>
